<?xml version="1.0" standalone="no"?>
<!DOCTYPE svg PUBLIC "-//W3C//DTD SVG 20010904//EN" "http://www.w3.org/TR/2001/REC-SVG-20010904/DTD/svg10.dtd">
<svg version="1.0" xmlns="http://www.w3.org/2000/svg" width="196.000000pt" height="196.000000pt"
    viewBox="0 0 196.000000 196.000000" preserveAspectRatio="xMidYMid meet">
    <metadata>
        Created by potrace 1.14, written by Peter Selinger 2001-2017
    </metadata>
    <g transform="translate(0.000000,196.000000) scale(0.100000,-0.100000)" fill="#000000" stroke="none">
        <path d="M1055 1656 c-264 -86 -438 -287 -489 -566 -9 -45 -162 -23 -319 46
-166 73 -249 48 -242 -72 4 -64 28 -98 125 -177 31 -25 166 -95 300 -154 25
-11 61 -27 80 -36 34 -15 70 -26 103 -31 9 -1 34 -29 56 -63 69 -108 191 -213
299 -261 21 -9 39 -16 42 -17 3 0 10 -3 15 -6 10 -6 81 -23 140 -34 70 -13
231 -3 268 16 9 6 17 8 17 5 0 -9 95 29 160 64 69 36 240 197 240 225 0 8 4
15 9 15 11 0 70 130 87 193 10 36 13 97 11 202 -3 129 -7 159 -27 210 -67 172
-176 302 -325 385 -109 61 -160 73 -325 76 -139 3 -162 1 -225 -20z" />
    </g>
</svg>